<svg width="24" height="24" viewBox="0 0 24 24" fill="none" xmlns="http://www.w3.org/2000/svg">
<g clip-path="url(#clip0_4011_1020)">
<path fill-rule="evenodd" clip-rule="evenodd" d="M5.93213 19.2648L5.98944 19.2131L11.9997 13.2028L18.0103 19.2134C18.3031 19.5062 18.778 19.5062 19.0709 19.2134C19.3638 18.9205 19.3638 18.4456 19.0709 18.1527L13.0604 12.1421L19.0709 6.13158C19.3638 5.83868 19.3638 5.36381 19.0709 5.07092C18.778 4.77802 18.3032 4.77802 18.0103 5.07092L11.9997 11.0815L5.98944 5.07122L5.93213 5.01943C5.63755 4.77921 5.20335 4.79665 4.92878 5.07122C4.65421 5.34579 4.63677 5.77998 4.87699 6.07456L4.92878 6.13188L10.939 12.1421L4.92878 18.1524L4.87699 18.2097C4.63678 18.5043 4.65421 18.9385 4.92878 19.2131C5.20335 19.4876 5.63755 19.5051 5.93213 19.2648Z" fill="#757575"/>
</g>
<defs>
<clipPath id="clip0_4011_1020">
<rect width="24" height="24" fill="white"/>
</clipPath>
</defs>
</svg>
