<svg width="24" height="24" viewBox="0 0 24 24" fill="none" xmlns="http://www.w3.org/2000/svg">
<path fill-rule="evenodd" clip-rule="evenodd" d="M10.2675 4.5C7.07347 4.5 4.48434 7.08922 4.48427 10.2832C4.48427 13.4773 7.07343 16.0664 10.2675 16.0664C13.4615 16.0663 16.0507 13.4772 16.0507 10.2832C16.0506 7.08926 13.4614 4.50007 10.2675 4.5ZM10.2675 17.5664C6.245 17.5664 2.98427 14.3057 2.98427 10.2832C2.98434 6.26079 6.24504 3 10.2675 3C14.2898 3.00007 17.5506 6.26083 17.5507 10.2832C17.5507 12.2476 16.773 14.0302 15.5088 15.3402L19.7804 19.6118C20.0732 19.9047 20.0732 20.3795 19.7804 20.6724C19.4875 20.9653 19.0127 20.9653 18.7198 20.6724L14.3643 16.3169C14.3621 16.3147 14.3599 16.3125 14.3577 16.3102C13.1918 17.103 11.7837 17.5664 10.2675 17.5664Z" fill="#B8B7B6"/>
</svg>
